<?xml version="1.0" encoding="UTF-8"?>
<!DOCTYPE svg PUBLIC "-//W3C//DTD SVG 1.0//EN" "http://www.w3.org/TR/2001/REC-SVG-20010904/DTD/svg10.dtd">
<!-- Creator: CorelDRAW -->
<svg xmlns="http://www.w3.org/2000/svg" xml:space="preserve" width="150mm" height="150mm" version="1.0" style="shape-rendering:geometricPrecision; text-rendering:geometricPrecision; image-rendering:optimizeQuality; fill-rule:evenodd; clip-rule:evenodd"
viewBox="0 0 14998.94 14998.94"
 xmlns:xlink="http://www.w3.org/1999/xlink"
 xmlns:xodm="http://www.corel.com/coreldraw/odm/2003">
 <defs>
  <style type="text/css">
   <![CDATA[
    .fil0 {fill:black}
   ]]>
  </style>
 </defs>
 <g id="Camada_x0020_1">
  <metadata id="CorelCorpID_0Corel-Layer"/>
  <g id="_2168221864288">
   <path class="fil0" d="M586.17 7499.47c0,-3818.11 3095.19,-6913.3 6913.3,-6913.3 3818.11,0 6913.3,3095.19 6913.3,6913.3 0,3818.11 -3095.19,6913.3 -6913.3,6913.3 -3818.11,0 -6913.3,-3095.19 -6913.3,-6913.3zm14412.77 0c0,-4141.84 -3357.63,-7499.47 -7499.47,-7499.47 -4141.84,0 -7499.47,3357.63 -7499.47,7499.47 0,4141.84 3357.63,7499.47 7499.47,7499.47 4141.84,0 7499.47,-3357.63 7499.47,-7499.47z"/>
   <path class="fil0" d="M7476.4 2508.8c-1507.35,0 -2729.29,1221.94 -2729.29,2729.29 0,1507.34 1221.93,2729.29 2729.29,2729.29 1507.34,0 2729.28,-1221.94 2729.28,-2729.29 0,-1507.34 -1221.93,-2729.29 -2729.28,-2729.29z"/>
   <path class="fil0" d="M7409.08 8558.11c-762.21,20.93 -1482.61,99.61 -2119.02,277.3 -703.63,196.45 -1265.13,606.15 -1742.92,1141.39 -305.99,342.8 -568.98,815.41 -769.49,1277.32 -43.08,99.23 -63.39,253.89 9.57,332.53 1183.36,1275.55 2341.6,1896.95 3733.69,2085.75 286.45,38.86 585.45,66.55 888.17,42.94 2086.45,-162.8 3493.84,-750.79 4345.64,-1686.57 171.07,-187.95 416.54,-346.22 468.38,-559.87 17.94,-73.88 -22,-186.14 -48.78,-265.23 -96.16,-284.01 -196.43,-522.47 -437.11,-844.15 -363.07,-485.28 -909.56,-1009.01 -1566.96,-1354.32 -761.43,-399.95 -1765.25,-474.42 -2761.17,-447.08z"/>
  </g>
 </g>
</svg>
